<?xml version="1.0" encoding="UTF-8"?>
<svg xmlns="http://www.w3.org/2000/svg" xmlns:xlink="http://www.w3.org/1999/xlink" width="375pt" height="374.999991pt" viewBox="0 0 375 374.999991" version="1.2">
<defs>
<clipPath id="clip1">
  <path d="M 0 334 L 375 334 L 375 365.0625 L 0 365.0625 Z M 0 334 "/>
</clipPath>
<clipPath id="clip2">
  <path d="M 212 10.3125 L 375 10.3125 L 375 320 L 212 320 Z M 212 10.3125 "/>
</clipPath>
</defs>
<g id="surface1">
<rect x="0" y="0" width="375" height="374.999991" style="fill:rgb(100%,98.81897%,94.898987%);fill-opacity:1;stroke:none;"/>
<path style=" stroke:none;fill-rule:nonzero;fill:rgb(92.158508%,36.859131%,15.689087%);fill-opacity:1;" d="M 75.050781 319.730469 L 10.925781 319.730469 C 5.261719 319.730469 0.609375 315.078125 0.609375 309.410156 L 0.609375 27.3125 C 0.609375 21.644531 5.261719 16.992188 10.925781 16.992188 L 75.050781 16.992188 C 80.714844 16.992188 85.367188 21.644531 85.367188 27.3125 L 85.367188 309.410156 C 85.367188 315.078125 80.714844 319.730469 75.050781 319.730469 Z M 75.050781 319.730469 "/>
<g clip-path="url(#clip1)" clip-rule="nonzero">
<path style=" stroke:none;fill-rule:nonzero;fill:rgb(14.509583%,14.118958%,13.328552%);fill-opacity:1;" d="M 374.632812 340.375 L 374.632812 359.394531 C 374.632812 362.632812 372.003906 365.0625 368.96875 365.0625 L 6.273438 365.0625 C 3.035156 365.0625 0.609375 362.433594 0.609375 359.394531 L 0.609375 340.375 C 0.609375 337.136719 3.238281 334.707031 6.273438 334.707031 L 368.96875 334.707031 C 372.207031 334.707031 374.632812 337.339844 374.632812 340.375 Z M 374.632812 340.375 "/>
</g>
<path style=" stroke:none;fill-rule:nonzero;fill:rgb(14.509583%,14.118958%,13.328552%);fill-opacity:1;" d="M 183.273438 319.730469 L 119.148438 319.730469 C 113.484375 319.730469 108.832031 315.078125 108.832031 309.410156 L 108.832031 27.3125 C 108.832031 21.644531 113.484375 16.992188 119.148438 16.992188 L 183.273438 16.992188 C 188.9375 16.992188 193.589844 21.644531 193.589844 27.3125 L 193.589844 309.410156 C 193.386719 315.078125 188.9375 319.730469 183.273438 319.730469 Z M 183.273438 319.730469 "/>
<g clip-path="url(#clip2)" clip-rule="nonzero">
<path style=" stroke:none;fill-rule:nonzero;fill:rgb(14.509583%,14.118958%,13.328552%);fill-opacity:1;" d="M 367.351562 301.113281 L 305.859375 319.125 C 300.394531 320.742188 294.730469 317.707031 293.113281 312.246094 L 213.414062 41.679688 C 211.792969 36.214844 214.828125 30.550781 220.289062 28.929688 L 281.785156 10.71875 C 287.246094 9.097656 292.910156 12.132812 294.53125 17.597656 L 374.230469 288.367188 C 375.847656 293.828125 372.8125 299.496094 367.351562 301.113281 Z M 367.351562 301.113281 "/>
</g>
</g>
</svg>
